<svg id="Vrstva_1" data-name="Vrstva 1" xmlns="http://www.w3.org/2000/svg" viewBox="0 0 157.26 36.85"><title>uhk-en_hor</title><g id="zavorky_uhk_doubleline_en"><polygon points="5.08 23.51 5.08 31.77 10.16 36.85 16.36 36.85 14.51 31.77 10.16 31.77 10.16 23.51 5.08 18.43 10.16 13.34 10.16 5.08 14.51 5.08 16.36 0 10.16 0 5.08 5.08 5.08 13.34 0 18.43 5.08 23.51"/><polygon points="36.85 31.77 32.5 31.77 30.65 36.85 36.85 36.85 41.93 31.77 41.93 23.51 47.01 18.43 41.93 13.34 41.93 5.08 36.85 0 30.65 0 32.5 5.08 36.85 5.08 36.85 13.34 41.93 18.43 36.85 23.51 36.85 31.77"/></g><g id="text_uhk_doubleline_en"><path d="M54.63,11.19v-6h1.55v6a2.57,2.57,0,1,0,5.13,0v-6h1.54v6a3.78,3.78,0,0,1-4.11,4.08A3.78,3.78,0,0,1,54.63,11.19Z"/><path d="M71.67,9.92v5.17H70.16V10.25A1.44,1.44,0,0,0,68.67,8.7a3.31,3.31,0,0,0-2.22,1v5.35H64.94v-5a8.79,8.79,0,0,0-.32-2.31l1-.34.51,1.29a4.21,4.21,0,0,1,3-1.37A2.44,2.44,0,0,1,71.67,9.92Z"/><path d="M73.68,5.28a1,1,0,0,1,1.94,0,1,1,0,0,1-1.94,0Zm.21,2.63,1.52-.53v7.71H73.89Z"/><path d="M84.58,7.58l-3.16,7.51H79.86L76.7,7.58h1.66l2.34,6.24L83,7.58Z"/><path d="M91.8,11.9H86.61a2.46,2.46,0,0,0,2.73,2.19,5.36,5.36,0,0,0,2.06-.48l.37,1a5.66,5.66,0,0,1-2.68.72,3.76,3.76,0,0,1-4.07-4,3.64,3.64,0,0,1,3.71-4C91.46,7.35,92.33,9.62,91.8,11.9Zm-5.19-1.16h3.9c.09-1.35-.57-2.26-1.78-2.26S86.79,9.3,86.61,10.74Z"/><path d="M93.87,10.28a10.33,10.33,0,0,0-.31-2.49l1-.36.54,1.69a2.74,2.74,0,0,1,2.31-1.77,2.5,2.5,0,0,1,1,.2L97.86,9.2a1.7,1.7,0,0,0-.78-.2,2,2,0,0,0-1.69,1.35v4.74H93.87Z"/><path d="M99.69,13.61a6.21,6.21,0,0,0,2.46.51c1.1,0,1.64-.36,1.64-1s-.51-.92-2-1.38-2.34-1.08-2.34-2.24c0-1.35,1.11-2.16,2.88-2.16a7.06,7.06,0,0,1,2.64.53l-.36,1a6,6,0,0,0-2.13-.43c-1,0-1.58.34-1.58.91s.48.81,1.83,1.23c1.82.57,2.48,1.31,2.48,2.46s-1.1,2.24-3,2.24a7.65,7.65,0,0,1-2.89-.59Z"/><path d="M106.82,5.28a1,1,0,0,1,1.93,0,1,1,0,0,1-1.93,0ZM107,7.91l1.51-.53v7.71H107Z"/><path d="M111.37,13.2V8.73h-1.31V7.58h1.31V5.79l1.52-.55V7.58h2.51V8.73h-2.51v4.2a.92.92,0,0,0,1,1,2.64,2.64,0,0,0,1.32-.42l.42,1.11a4.14,4.14,0,0,1-2.12.66A2,2,0,0,1,111.37,13.2Z"/><path d="M124,7.58l-2.9,7.33c-.85,2.19-1.75,3.3-3.84,3.72l-.39-1.21a3.59,3.59,0,0,0,2.52-2.06L116,7.58h1.65l2.35,6.3,2.3-6.3Z"/><path d="M128.22,11.34c0-2.47,1.42-4,3.61-4s3.63,1.52,3.63,4-1.42,4-3.63,4S128.22,13.8,128.22,11.34Zm5.64,0c0-1.9-.8-2.86-2-2.86s-2,1-2,2.86.77,2.85,2,2.85S133.86,13.23,133.86,11.34Z"/><path d="M139.1,6.6v1h2.17V8.73H139.1v6.36h-1.52V8.73h-1.23V7.58h1.23V6.45A2.3,2.3,0,0,1,140,4a4.59,4.59,0,0,1,2.05.48l-.44,1.15a2.93,2.93,0,0,0-1.31-.34A1.14,1.14,0,0,0,139.1,6.6Z"/><path d="M54.87,21.22h1.55v4.26h5.22V21.22h1.53v9.87H61.64V26.77H56.42v4.32H54.87Z"/><path d="M65.49,26.28a10.33,10.33,0,0,0-.31-2.49l1-.36.54,1.69A2.74,2.74,0,0,1,69,23.35a2.5,2.5,0,0,1,1,.2l-.59,1.65a1.7,1.7,0,0,0-.78-.2A2,2,0,0,0,67,26.35v4.74H65.49Z"/><path d="M78.2,30.84a2.33,2.33,0,0,1-1.37.48,1.24,1.24,0,0,1-1.3-1.17,3.73,3.73,0,0,1-2.75,1.17c-1.35,0-2.31-.74-2.29-2,0-1.53,1.62-2.85,4.71-2.64v-.56a1.35,1.35,0,0,0-1.5-1.5,6.36,6.36,0,0,0-2.46.62l-.42-1.13A7.47,7.47,0,0,1,74,23.35,2.44,2.44,0,0,1,76.71,26V29.4c0,.45.16.66.48.66a1.13,1.13,0,0,0,.64-.24Zm-3-1.68V27.7c-2-.16-3.2.44-3.2,1.46,0,.6.47,1,1.2,1A2.65,2.65,0,0,0,75.2,29.16Z"/><path d="M78.62,27.4c0-2.38,1.42-4,3.54-4a4.13,4.13,0,0,1,1.92.47V20.53L85.59,20v8.57a8,8,0,0,0,.32,2.31l-1,.36L84.42,30a3.3,3.3,0,0,1-2.52,1.31C80.15,31.32,78.62,30,78.62,27.4ZM84.08,29V25a3.27,3.27,0,0,0-1.64-.47c-1.33,0-2.25,1.11-2.25,2.85s.9,2.66,2.09,2.66A2.3,2.3,0,0,0,84.08,29Z"/><path d="M94.13,27.9H88.94a2.46,2.46,0,0,0,2.73,2.19,5.35,5.35,0,0,0,2-.48l.38,1a5.7,5.7,0,0,1-2.69.72,3.75,3.75,0,0,1-4.06-4c0-2.46,1.54-4,3.7-4C93.78,23.35,94.65,25.62,94.13,27.9Zm-5.19-1.16h3.9c.09-1.35-.57-2.26-1.79-2.26S89.12,25.3,88.94,26.74Z"/><path d="M95.72,27.34c0-2.49,1.5-4,3.69-4a6.38,6.38,0,0,1,2.47.54l-.4,1.11a4.78,4.78,0,0,0-1.83-.39c-1.38,0-2.36,1-2.36,2.73s1,2.72,2.39,2.72a4.93,4.93,0,0,0,2-.48L102,30.7a6.1,6.1,0,0,1-2.55.62C97.2,31.32,95.72,29.82,95.72,27.34Z"/><path d="M107.37,21.22h1.55v9.87h-1.55Zm8.19,9.87h-1.9l-4.29-4.75,4.27-5.12h1.71l-4.29,5Z"/><path d="M116.61,26.28a10,10,0,0,0-.32-2.49l1-.36.54,1.69a2.71,2.71,0,0,1,2.31-1.77,2.45,2.45,0,0,1,1,.2l-.58,1.65a1.74,1.74,0,0,0-.78-.2,2,2,0,0,0-1.7,1.35v4.74h-1.51Z"/><path d="M129.32,30.84a2.3,2.3,0,0,1-1.37.48,1.24,1.24,0,0,1-1.3-1.17,3.72,3.72,0,0,1-2.75,1.17c-1.35,0-2.31-.74-2.29-2,0-1.53,1.62-2.85,4.71-2.64v-.56a1.35,1.35,0,0,0-1.5-1.5,6.36,6.36,0,0,0-2.46.62l-.42-1.13a7.47,7.47,0,0,1,3.18-.75A2.44,2.44,0,0,1,127.83,26V29.4c0,.45.17.66.48.66a1.16,1.16,0,0,0,.65-.24Zm-3-1.68V27.7c-2-.16-3.2.44-3.2,1.46,0,.6.47,1,1.2,1A2.65,2.65,0,0,0,126.32,29.16Zm-2.72-6.65-.39-1.05,3.48-1.41.45,1.29Z"/><path d="M130.44,29.58v-9L132,20V29.4c0,.45.16.66.49.66a1.11,1.11,0,0,0,.64-.24l.37,1a2.55,2.55,0,0,1-1.54.48C131,31.32,130.44,30.75,130.44,29.58Z"/><path d="M134.33,27.34c0-2.47,1.42-4,3.61-4s3.63,1.52,3.63,4-1.42,4-3.63,4S134.33,29.8,134.33,27.34Zm5.63,0c0-1.9-.79-2.86-2-2.86s-2,1-2,2.86.78,2.85,2,2.85S140,29.23,140,27.34Z"/><path d="M149.89,23.58l-3.16,7.51h-1.56L142,23.58h1.67L146,29.82l2.28-6.24Z"/><path d="M157.11,27.9h-5.19a2.46,2.46,0,0,0,2.73,2.19,5.36,5.36,0,0,0,2.06-.48l.37,1a5.66,5.66,0,0,1-2.68.72,3.76,3.76,0,0,1-4.07-4,3.64,3.64,0,0,1,3.71-4C156.77,23.35,157.64,25.62,157.11,27.9Zm-5.19-1.16h3.9c.09-1.35-.57-2.26-1.78-2.26S152.1,25.3,151.92,26.74Zm.78-4.23-.39-1.05,3.48-1.41.45,1.29Z"/></g></svg>